<svg version="1.1" xmlns="http://www.w3.org/2000/svg" xmlns:xlink="http://www.w3.org/1999/xlink" width="110" height="263.51724" viewBox="0,0,110,263.51724"><g transform="translate(-158,58)"><g data-paper-data="{&quot;isPaintingLayer&quot;:true}" fill-rule="nonzero" stroke-linejoin="miter" stroke-miterlimit="10" stroke-dasharray="" stroke-dashoffset="0" style="mix-blend-mode: normal"><path d="M265.26667,170.75862c0,18.64437 -14.61044,33.75862 -32.63333,33.75862c-18.02289,0 -32.63333,-15.11425 -32.63333,-33.75862c0,-18.64437 14.61044,-33.75862 32.63333,-33.75862c18.02289,0 32.63333,15.11425 32.63333,33.75862z" fill="none" stroke="#000000" stroke-width="2" stroke-linecap="butt"/><path d="M249,-58v0v0v0z" fill="none" stroke="none" stroke-width="0" stroke-linecap="butt"/><path d="M217,179l31,1" fill="none" stroke="#000000" stroke-width="2" stroke-linecap="round"/><path d="M159,-42.5c0,0.27614 0.22386,0.5 0.5,0.5c0.27614,0 0.5,-0.22386 0.5,-0.5c0,-0.27614 -0.22386,-0.5 -0.5,-0.5c-0.27614,0 -0.5,0.22386 -0.5,0.5z" fill="#000000" stroke="#000000" stroke-width="2" stroke-linecap="butt"/><path d="M237,156.5c0,3.58985 -2.23857,6.5 -5,6.5c-2.76143,0 -5,-2.91015 -5,-6.5c0,-3.58985 2.23857,-6.5 5,-6.5c2.76143,0 5,2.91015 5,6.5z" fill="#000000" stroke="#000000" stroke-width="2" stroke-linecap="butt"/><path d="M248,179.5c0,9.1127 -7.16344,16.5 -16,16.5c-8.83656,0 -16,-7.3873 -16,-16.5c0,-9.1127 7.16344,-16.5 16,-16.5c8.83656,0 16,7.3873 16,16.5z" fill="#000000" stroke="#000000" stroke-width="2" stroke-linecap="butt"/><path d="M215,199.04082v-18.04082h36.875v18.04082z" fill="#ffffff" stroke="#ffffff" stroke-width="2" stroke-linecap="butt"/><path d="M267,170c0,18.2254 -15.44618,33 -34.5,33c-19.05382,0 -34.5,-14.7746 -34.5,-33c0,-18.2254 15.44618,-33 34.5,-33c19.05382,0 34.5,14.7746 34.5,33z" fill="none" stroke="#000000" stroke-width="2" stroke-linecap="butt"/></g></g></svg>